<svg xmlns="http://www.w3.org/2000/svg" viewBox="0 0 48 32" width="48" height="32">
  <defs>
    <linearGradient id="nagadGrad" x1="0%" y1="0%" x2="100%" y2="100%">
      <stop offset="0%" stop-color="#F7941D"/>
      <stop offset="100%" stop-color="#ED1C24"/>
    </linearGradient>
  </defs>
  <rect width="48" height="32" rx="4" fill="url(#nagadGrad)"/>
  <path d="M12 21c-2.8 0-5-2.2-5-5s2.2-5 5-5c1.4 0 2.7.6 3.6 1.5l-1.5 1.5c-.6-.6-1.3-1-2.1-1-1.7 0-3 1.3-3 3s1.3 3 3 3c.8 0 1.5-.4 2.1-1l1.5 1.5c-.9 1-2.2 1.5-3.6 1.5z" fill="#FFFFFF"/>
  <text x="18" y="20" fill="#FFFFFF" font-family="sans-serif" font-weight="900" font-size="9" letter-spacing="0.5">NAGAD</text>
</svg>
